HIERARCHY
ROOT Hips
{
	OFFSET 0.000000 0.000000 0.000000
	CHANNELS 6 Xposition Yposition Zposition Zrotation Yrotation Xrotation 
	JOINT LHipJoint
	{
		OFFSET 0.000000 0.000000 0.000000
		CHANNELS 3 Zrotation Yrotation Xrotation
		JOINT LeftUpLeg
		{
			OFFSET 1.363060 -1.794630 0.839290
			CHANNELS 3 Zrotation Yrotation Xrotation
			JOINT LeftLeg
			{
				OFFSET 2.448110 -6.726130 0.000000
				CHANNELS 3 Zrotation Yrotation Xrotation
				JOINT LeftFoot
				{
					OFFSET 2.562200 -7.039590 0.000000
					CHANNELS 3 Zrotation Yrotation Xrotation
					JOINT LeftToeBase
					{
						OFFSET 0.157640 -0.433110 2.322550
						CHANNELS 3 Zrotation Yrotation Xrotation
						End Site
						{
							OFFSET 0.000000 0.000000 0.000000
						}
					}
				}
			}
		}
	}
	JOINT RHipJoint
	{
		OFFSET 0.000000 0.000000 0.000000
		CHANNELS 3 Zrotation Yrotation Xrotation
		JOINT RightUpLeg
		{
			OFFSET -1.305520 -1.794630 0.839290
			CHANNELS 3 Zrotation Yrotation Xrotation
			JOINT RightLeg
			{
				OFFSET -2.542530 -6.985550 0.000000
				CHANNELS 3 Zrotation Yrotation Xrotation
				JOINT RightFoot
				{
					OFFSET -2.568260 -7.056230 0.000000
					CHANNELS 3 Zrotation Yrotation Xrotation
					JOINT RightToeBase
					{
						OFFSET -0.164730 -0.452590 2.363150
						CHANNELS 3 Zrotation Yrotation Xrotation
						End Site
						{
							OFFSET 0.000000 0.000000 0.000000
						}
					}
				}
			}
		}
	}
	JOINT LowerBack
	{
		OFFSET 0.000000 0.000000 0.000000
		CHANNELS 3 Zrotation Yrotation Xrotation
		JOINT Spine
		{
			OFFSET 0.028270 2.035590 -0.193380
			CHANNELS 3 Zrotation Yrotation Xrotation
			JOINT Spine1
			{
				OFFSET 0.056720 2.048850 -0.042750
				CHANNELS 3 Zrotation Yrotation Xrotation
				JOINT Neck
				{
					OFFSET 0.000000 0.000000 0.000000
					CHANNELS 3 Zrotation Yrotation Xrotation
					JOINT Neck1
					{
						OFFSET -0.054170 1.746240 0.172020
						CHANNELS 3 Zrotation Yrotation Xrotation
						JOINT Head
						{
							OFFSET 0.104070 1.761360 -0.123970
							CHANNELS 3 Zrotation Yrotation Xrotation
							End Site
							{
								OFFSET 0.000000 0.000000 0.000000
							}
						}
					}
				}
				JOINT LeftShoulder
				{
					OFFSET 0.000000 0.000000 0.000000
					CHANNELS 3 Zrotation Yrotation Xrotation
					JOINT LeftArm
					{
						OFFSET 3.362410 1.200890 -0.311210
						CHANNELS 3 Zrotation Yrotation Xrotation
						JOINT LeftForeArm
						{
							OFFSET 4.983000 -0.000000 -0.000000
							CHANNELS 3 Zrotation Yrotation Xrotation
							JOINT LeftHand
							{
								OFFSET 3.483560 -0.000000 -0.000000
								CHANNELS 3 Zrotation Yrotation Xrotation
								JOINT LeftFingerBase
								{
									OFFSET 0.000000 0.000000 0.000000
									CHANNELS 3 Zrotation Yrotation Xrotation
									JOINT LeftHandIndex1
									{
										OFFSET 0.715260 -0.000000 -0.000000
										CHANNELS 3 Zrotation Yrotation Xrotation
										End Site
										{
											OFFSET 0.000000 0.000000 0.000000
										}
									}
								}
								JOINT LThumb
								{
									OFFSET 0.000000 0.000000 0.000000
									CHANNELS 3 Zrotation Yrotation Xrotation
									End Site
									{
										OFFSET 0.000000 0.000000 0.000000
									}
								}
							}
						}
					}
				}
				JOINT RightShoulder
				{
					OFFSET 0.000000 0.000000 0.000000
					CHANNELS 3 Zrotation Yrotation Xrotation
					JOINT RightArm
					{
						OFFSET -3.136600 1.374050 -0.404650
						CHANNELS 3 Zrotation Yrotation Xrotation
						JOINT RightForeArm
						{
							OFFSET -5.241900 -0.000000 -0.000000
							CHANNELS 3 Zrotation Yrotation Xrotation
							JOINT RightHand
							{
								OFFSET -3.444170 -0.000000 -0.000000
								CHANNELS 3 Zrotation Yrotation Xrotation
								JOINT RightFingerBase
								{
									OFFSET 0.000000 0.000000 0.000000
									CHANNELS 3 Zrotation Yrotation Xrotation
									JOINT RightHandIndex1
									{
										OFFSET -0.622530 -0.000000 -0.000000
										CHANNELS 3 Zrotation Yrotation Xrotation
										End Site
										{
											OFFSET 0.000000 0.000000 0.000000
										}
									}
								}
								JOINT RThumb
								{
									OFFSET 0.000000 0.000000 0.000000
									CHANNELS 3 Zrotation Yrotation Xrotation
									End Site
									{
										OFFSET 0.000000 0.000000 0.000000
									}
								}
							}
						}
					}
				}
			}
		}
	}
}
MOTION
Frames: 6
Frame Time: 0.033333
-0.388772 16.576493 -0.388772 -6.334568 2.723239 2.220694 -2.902264 11.340471 1.677856 -10.217203 -4.481228 -9.901610 -4.892333 -14.045098 -36.622076 1.932206 19.649452 41.295889 0.000000 0.000000 0.000000 -1.805783 -2.090422 -19.327276 26.899290 -10.306869 13.738367 6.137060 -5.375853 5.074529 1.017689 8.009754 -31.965907 0.000000 0.000000 0.000000 -1.574088 -2.932325 20.041278 5.515674 -0.216624 -6.165114 4.971757 -0.824146 0.174666 3.033148 -0.601862 -7.949292 1.163908 -0.010804 1.398931 0.000000 0.000000 0.000000 9.480769 8.474287 10.120236 -74.042477 -10.767364 -3.860234 -163.036002 -86.701998 179.506575 8.739970 -11.841480 -0.258560 8.880668 -11.772798 0.000000 0.000000 0.000000 0.000000 0.000000 0.000000 0.000000 -7.592477 -9.447155 8.079347 66.797187 9.547944 12.929508 27.294557 59.913414 0.252146 0.294311 10.572153 0.124824 0.283452 10.575384 0.000000 0.000000 0.000000 0.000000 0.000000 0.000000 0.000000 
-0.362762 16.618183 -0.214835 -5.998441 1.916601 2.554066 -2.678583 11.775619 1.650421 -10.926506 -4.339880 -9.793081 -4.889731 -13.645639 -35.915452 1.555927 18.733116 39.445336 0.000000 0.000000 0.000000 -1.571552 -3.440863 -18.451413 27.161947 -8.787794 12.154122 5.101506 -5.805448 8.268559 0.725338 8.909555 -32.513798 0.000000 0.000000 0.000000 -1.682484 -2.666223 19.447192 5.252919 -0.120078 -5.812297 4.942769 -0.700549 0.103484 3.044701 -0.638801 -7.852205 1.043338 -0.020309 1.404829 0.000000 0.000000 0.000000 9.378677 8.526367 10.039558 -73.977608 -11.062619 -4.760046 -161.954182 -86.449813 179.474970 8.900524 -11.611583 -0.274471 9.041486 -11.541261 0.000000 0.000000 0.000000 0.000000 0.000000 0.000000 0.000000 -7.524566 -9.217196 8.091217 66.755253 9.372129 13.710389 26.646227 61.863755 0.269500 0.230728 10.825189 0.133380 0.219253 10.828569 0.000000 0.000000 0.000000 0.000000 0.000000 0.000000 0.000000 
-0.334531 16.661693 -0.041460 -5.640037 1.139494 2.912588 -2.482460 12.188471 1.586542 -11.652273 -4.216258 -9.706408 -4.896521 -13.229100 -35.109920 1.205533 17.782497 37.508200 0.000000 0.000000 0.000000 -1.285071 -4.726022 -17.486810 27.319556 -7.180629 10.479574 4.010898 -6.169623 11.373724 0.466374 9.684341 -32.919925 0.000000 0.000000 0.000000 -1.795053 -2.409726 18.819871 4.972668 -0.032764 -5.451689 4.921145 -0.586310 0.018427 3.054229 -0.675066 -7.752012 0.921135 -0.029922 1.411906 0.000000 0.000000 0.000000 9.280557 8.565826 9.952431 -73.907002 -11.358387 -5.649620 -160.888194 -86.212744 179.443849 9.048320 -11.376776 -0.290129 9.189330 -11.304992 0.000000 0.000000 0.000000 0.000000 0.000000 0.000000 0.000000 -7.450928 -8.994026 8.088947 66.713805 9.196692 14.475171 25.898183 63.780229 0.286121 0.153349 11.068929 0.141560 0.141127 11.072429 0.000000 0.000000 0.000000 0.000000 0.000000 0.000000 0.000000 
-0.304134 16.706574 0.130956 -5.263628 0.403080 3.290659 -2.312221 12.578434 1.487436 -12.390711 -4.113912 -9.642612 -4.916853 -12.796194 -34.204015 0.884118 16.801984 35.492762 0.000000 0.000000 0.000000 -0.959238 -5.931786 -16.445580 27.362376 -5.512333 8.735261 2.903410 -6.463283 14.351620 0.244528 10.334142 -33.186358 0.000000 0.000000 0.000000 -1.905868 -2.167038 18.164438 4.674980 0.042751 -5.082414 4.906801 -0.484059 -0.081263 3.062010 -0.710627 -7.649276 0.797344 -0.039647 1.420391 0.000000 0.000000 0.000000 9.186721 8.591747 9.858678 -73.830531 -11.654695 -6.527744 -159.836939 -85.990967 179.413258 9.183419 -11.137534 -0.305511 9.324273 -11.064466 0.000000 0.000000 0.000000 0.000000 0.000000 0.000000 0.000000 -7.372393 -8.779569 8.072380 66.673171 9.022629 15.215526 25.055728 65.656185 0.301776 0.061761 11.302051 0.149246 0.048640 11.305633 0.000000 0.000000 0.000000 0.000000 0.000000 0.000000 0.000000 
-0.272140 16.752420 0.302054 -4.873435 -0.283445 3.681860 -2.166083 12.946223 1.356095 -13.137344 -4.035886 -9.602993 -4.949791 -12.347352 -33.198104 0.593568 15.796007 33.410092 0.000000 0.000000 0.000000 -0.606730 -7.047900 -15.342819 27.281843 -3.813871 6.942716 1.820777 -6.689757 17.171123 0.061070 10.862694 -33.317208 0.000000 0.000000 0.000000 -2.009336 -1.941462 17.486976 4.359877 0.104409 -4.703187 4.899637 -0.395924 -0.196186 3.068322 -0.745443 -7.544525 0.672072 -0.049480 1.430477 0.000000 0.000000 0.000000 9.097492 8.603479 9.758099 -73.748067 -11.951534 -7.393262 -158.799376 -85.784701 179.383236 9.305925 -10.894354 -0.320600 9.446436 -10.820174 0.000000 0.000000 0.000000 0.000000 0.000000 0.000000 0.000000 -7.289817 -8.575441 8.041503 66.633854 8.851078 15.923645 24.125766 67.485845 0.316259 -0.044187 11.523364 0.156336 -0.058376 11.526981 0.000000 0.000000 0.000000 0.000000 0.000000 0.000000 0.000000 
-0.233194 16.802273 0.477034 -4.455807 -0.816954 4.112474 -2.068586 13.291177 1.144554 -13.906249 -4.008569 -9.626422 -5.087728 -11.852211 -31.927739 0.332955 14.622159 31.150380 0.000000 0.000000 0.000000 -0.274681 -8.392103 -13.947007 27.152487 -1.910735 4.856003 0.756391 -6.811796 19.916499 -0.116070 11.317074 -33.302366 0.000000 0.000000 0.000000 -1.994967 -1.653666 16.588396 4.253450 0.161538 -4.146505 4.481267 -0.188515 -0.593622 3.225612 -0.745694 -7.439840 0.483313 -0.053823 1.307389 0.000000 0.000000 0.000000 8.346252 8.760510 9.889423 -73.620191 -11.235570 -5.141922 -160.834914 -86.294195 179.457773 9.079848 -11.436702 -0.283293 9.221277 -11.364192 0.000000 0.000000 0.000000 0.000000 0.000000 0.000000 0.000000 -7.082333 -8.649879 8.087413 66.678336 8.510328 16.439620 23.199423 68.874817 0.325964 -0.153538 11.697756 0.161055 -0.168889 11.701321 0.000000 0.000000 0.000000 0.000000 0.000000 0.000000 0.000000 
